<svg xmlns="http://www.w3.org/2000/svg" viewBox="0 0 1200 800" preserveAspectRatio="xMidYMid slice">
  <defs>
    <linearGradient id="topoGradient" x1="0%" y1="0%" x2="100%" y2="100%">
      <stop offset="0%" style="stop-color:#00d4ff;stop-opacity:0.08"/>
      <stop offset="100%" style="stop-color:#0099cc;stop-opacity:0.03"/>
    </linearGradient>
  </defs>
  
  <!-- Topographic contour lines - flowing organic shapes suggesting depth and layers -->
  <g fill="none" stroke="url(#topoGradient)" stroke-width="1">
    <!-- Layer 1 - Outermost contours -->
    <path d="M-50,200 Q150,150 300,180 T550,160 T800,200 T1050,170 T1250,220" opacity="0.4"/>
    <path d="M-50,250 Q200,200 400,240 T700,210 T950,260 T1250,230" opacity="0.35"/>
    
    <!-- Layer 2 -->
    <path d="M-50,350 Q100,300 250,340 T500,310 T750,360 T1000,320 T1250,370" opacity="0.3"/>
    <path d="M-50,400 Q180,360 380,390 T630,350 T880,410 T1130,370 T1250,420" opacity="0.28"/>
    
    <!-- Layer 3 - Mid depth -->
    <path d="M-50,480 Q120,440 320,470 T570,430 T820,490 T1070,450 T1250,500" opacity="0.25"/>
    <path d="M-50,530 Q200,490 400,520 T650,480 T900,540 T1150,500 T1250,550" opacity="0.22"/>
    
    <!-- Layer 4 -->
    <path d="M-50,600 Q150,560 350,590 T600,550 T850,610 T1100,570 T1250,620" opacity="0.2"/>
    <path d="M-50,650 Q180,620 380,640 T630,600 T880,660 T1130,620 T1250,670" opacity="0.18"/>
    
    <!-- Layer 5 - Innermost/deepest -->
    <path d="M-50,720 Q100,690 300,710 T550,680 T800,730 T1050,700 T1250,750" opacity="0.15"/>
    
    <!-- Diagonal accent lines suggesting flow -->
    <path d="M100,0 Q200,200 150,400 T250,600 T200,800" opacity="0.12"/>
    <path d="M400,0 Q480,180 420,380 T520,580 T460,800" opacity="0.1"/>
    <path d="M700,0 Q780,200 720,400 T820,600 T760,800" opacity="0.1"/>
    <path d="M1000,0 Q1080,180 1020,380 T1120,580 T1060,800" opacity="0.12"/>
    
    <!-- Subtle closed contours suggesting terrain features -->
    <ellipse cx="250" cy="300" rx="80" ry="40" transform="rotate(-15 250 300)" opacity="0.15"/>
    <ellipse cx="800" cy="450" rx="100" ry="50" transform="rotate(10 800 450)" opacity="0.12"/>
    <ellipse cx="500" cy="650" rx="70" ry="35" transform="rotate(-5 500 650)" opacity="0.1"/>
    <ellipse cx="1000" cy="250" rx="90" ry="45" transform="rotate(20 1000 250)" opacity="0.12"/>
  </g>
</svg>
